<svg xmlns="http://www.w3.org/2000/svg" viewBox="0 0 900 430" role="img"><rect width="900" height="430" fill="#f5fbff"/><text x="50" y="55" font-family="Arial" font-size="30" font-weight="700" fill="#132238">Mobile First: Layout wächst mit dem Viewport</text><g font-family="Arial"><rect x="80" y="115" width="150" height="230" rx="22" fill="#fff" stroke="#00a6b8" stroke-width="5"/><rect x="110" y="155" width="90" height="35" rx="8" fill="#e6f7fb"/><rect x="110" y="210" width="90" height="35" rx="8" fill="#e6f7fb"/><rect x="110" y="265" width="90" height="35" rx="8" fill="#e6f7fb"/><text x="101" y="380" font-size="18" fill="#005b96" font-weight="700">Smartphone</text><rect x="340" y="130" width="220" height="170" rx="18" fill="#fff" stroke="#005b96" stroke-width="5"/><rect x="370" y="165" width="75" height="90" rx="8" fill="#e6f7fb"/><rect x="460" y="165" width="75" height="90" rx="8" fill="#e6f7fb"/><text x="405" y="335" font-size="18" fill="#005b96" font-weight="700">Tablet</text><rect x="650" y="105" width="190" height="130" rx="12" fill="#fff" stroke="#0f766e" stroke-width="5"/><rect x="675" y="135" width="45" height="70" rx="8" fill="#ecfdf5"/><rect x="730" y="135" width="45" height="70" rx="8" fill="#ecfdf5"/><rect x="785" y="135" width="35" height="70" rx="8" fill="#ecfdf5"/><rect x="720" y="235" width="50" height="45" fill="#132238"/><text x="700" y="335" font-size="18" fill="#0f766e" font-weight="700">Desktop</text></g><path d="M250 225 H320" stroke="#94a3b8" stroke-width="5" marker-end="url(#m)"/><path d="M580 205 H630" stroke="#94a3b8" stroke-width="5" marker-end="url(#m)"/><defs><marker id="m" markerWidth="10" markerHeight="10" refX="8" refY="3" orient="auto"><path d="M0,0 L0,6 L9,3 z" fill="#94a3b8"/></marker></defs></svg>
